STARTFONT 2.1
FONT -misc-pisca-medium-r-normal--12-120-72-72-p-100-iso10646-1
SIZE 12 72 72
FONTBOUNDINGBOX 19 25 -2 -4
STARTPROPERTIES 17
FOUNDRY "misc"
FAMILY_NAME "pisca"
WEIGHT_NAME "medium"
SLANT "r"
SETWIDTH_NAME "normal"
SPACING "p"
CHARSET_REGISTRY "iso10646"
CHARSET_ENCODING "1"
FONT_ASCENT 17
FONT_DESCENT 4
_GBDFED_INFO "Edited with gbdfed 1.6."
ADD_STYLE_NAME ""
PIXEL_SIZE 12
POINT_SIZE 120
RESOLUTION_X 72
RESOLUTION_Y 72
AVERAGE_WIDTH 100
ENDPROPERTIES
CHARS 125
STARTCHAR C040
ENCODING 32
SWIDTH 333 0
DWIDTH 4 0
BBX 0 0 0 0
BITMAP
ENDCHAR
STARTCHAR C041
ENCODING 33
SWIDTH 333 0
DWIDTH 4 0
BBX 2 14 0 0
BITMAP
C0
C0
C0
C0
C0
C0
C0
C0
C0
C0
00
00
C0
C0
ENDCHAR
STARTCHAR C042
ENCODING 34
SWIDTH 583 0
DWIDTH 7 0
BBX 5 4 0 10
BITMAP
D8
D8
D8
D8
ENDCHAR
STARTCHAR C043
ENCODING 35
SWIDTH 1000 0
DWIDTH 12 0
BBX 11 14 0 0
BITMAP
3180
3180
3180
3180
FFE0
3180
3180
3180
3180
FFE0
3180
3180
3180
3180
ENDCHAR
STARTCHAR C044
ENCODING 36
SWIDTH 833 0
DWIDTH 10 0
BBX 8 17 0 -2
BITMAP
08
08
3E
6B
C8
C8
E8
78
1E
17
13
13
13
D6
7C
10
10
ENDCHAR
STARTCHAR C045
ENCODING 37
SWIDTH 1333 0
DWIDTH 16 0
BBX 12 14 0 0
BITMAP
78C0
CCC0
CD80
CD80
7B00
0300
0600
0600
0C00
0DE0
1B30
1B30
3330
31E0
ENDCHAR
STARTCHAR C046
ENCODING 38
SWIDTH 916 0
DWIDTH 11 0
BBX 9 12 0 0
BITMAP
3C00
6600
6600
6600
6600
3C00
7800
EC80
C780
C300
C780
7C80
ENDCHAR
STARTCHAR C047
ENCODING 39
SWIDTH 333 0
DWIDTH 4 0
BBX 2 4 0 10
BITMAP
C0
C0
C0
C0
ENDCHAR
STARTCHAR C050
ENCODING 40
SWIDTH 500 0
DWIDTH 6 0
BBX 4 18 0 -2
BITMAP
30
60
60
C0
C0
C0
C0
C0
C0
C0
C0
C0
C0
C0
C0
60
60
30
ENDCHAR
STARTCHAR C051
ENCODING 41
SWIDTH 500 0
DWIDTH 6 0
BBX 4 18 0 -2
BITMAP
C0
60
60
30
30
30
30
30
30
30
30
30
30
30
30
60
60
C0
ENDCHAR
STARTCHAR C052
ENCODING 42
SWIDTH 666 0
DWIDTH 8 0
BBX 6 5 0 7
BITMAP
30
B4
78
B4
30
ENDCHAR
STARTCHAR C053
ENCODING 43
SWIDTH 666 0
DWIDTH 8 0
BBX 6 5 0 3
BITMAP
30
30
FC
30
30
ENDCHAR
STARTCHAR C054
ENCODING 44
SWIDTH 416 0
DWIDTH 5 0
BBX 3 3 0 -1
BITMAP
60
60
C0
ENDCHAR
STARTCHAR C055
ENCODING 45
SWIDTH 666 0
DWIDTH 8 0
BBX 6 1 0 5
BITMAP
FC
ENDCHAR
STARTCHAR C056
ENCODING 46
SWIDTH 333 0
DWIDTH 4 0
BBX 2 2 0 0
BITMAP
C0
C0
ENDCHAR
STARTCHAR C057
ENCODING 47
SWIDTH 916 0
DWIDTH 11 0
BBX 9 16 1 -1
BITMAP
0180
0180
0300
0300
0600
0600
0C00
0C00
1800
1800
3000
3000
6000
6000
C000
C000
ENDCHAR
STARTCHAR C060
ENCODING 48
SWIDTH 833 0
DWIDTH 10 0
BBX 8 13 0 0
BITMAP
3C
66
C3
C3
C3
C3
C3
C3
C3
C3
C3
66
3C
ENDCHAR
STARTCHAR C061
ENCODING 49
SWIDTH 833 0
DWIDTH 10 0
BBX 8 13 0 0
BITMAP
38
F8
18
18
18
18
18
18
18
18
18
18
FF
ENDCHAR
STARTCHAR C062
ENCODING 50
SWIDTH 833 0
DWIDTH 10 0
BBX 8 13 0 0
BITMAP
7C
C6
03
03
03
03
06
0C
18
30
60
C0
FF
ENDCHAR
STARTCHAR C063
ENCODING 51
SWIDTH 833 0
DWIDTH 10 0
BBX 8 13 0 0
BITMAP
7C
C6
03
03
03
06
3C
06
03
03
03
C6
7C
ENDCHAR
STARTCHAR C064
ENCODING 52
SWIDTH 833 0
DWIDTH 10 0
BBX 8 13 0 0
BITMAP
18
18
30
30
30
66
66
C6
C6
FF
06
06
06
ENDCHAR
STARTCHAR C065
ENCODING 53
SWIDTH 833 0
DWIDTH 10 0
BBX 8 13 0 0
BITMAP
FE
C0
C0
C0
C0
FC
06
03
03
03
03
C6
7C
ENDCHAR
STARTCHAR C066
ENCODING 54
SWIDTH 833 0
DWIDTH 10 0
BBX 8 13 0 0
BITMAP
3E
60
C0
C0
C0
DC
E6
C3
C3
C3
C3
66
3C
ENDCHAR
STARTCHAR C067
ENCODING 55
SWIDTH 833 0
DWIDTH 10 0
BBX 8 13 0 0
BITMAP
FF
03
03
06
06
0C
0C
18
18
18
30
30
30
ENDCHAR
STARTCHAR C070
ENCODING 56
SWIDTH 833 0
DWIDTH 10 0
BBX 8 13 0 0
BITMAP
3C
66
C3
C3
C3
66
3C
66
C3
C3
C3
66
3C
ENDCHAR
STARTCHAR C071
ENCODING 57
SWIDTH 833 0
DWIDTH 10 0
BBX 8 13 0 0
BITMAP
3C
66
C3
C3
C3
C3
67
3B
02
06
0C
38
60
ENDCHAR
STARTCHAR C072
ENCODING 58
SWIDTH 500 0
DWIDTH 6 0
BBX 2 8 1 2
BITMAP
C0
C0
00
00
00
00
C0
C0
ENDCHAR
STARTCHAR C072
ENCODING 59
SWIDTH 250 0
DWIDTH 3 0
BBX 3 9 0 -1
BITMAP
60
60
00
00
00
00
60
60
C0
ENDCHAR
STARTCHAR char60
ENCODING 60
SWIDTH 666 0
DWIDTH 8 0
BBX 5 10 0 0
BITMAP
08
18
30
60
C0
C0
60
30
18
08
ENDCHAR
STARTCHAR C075
ENCODING 61
SWIDTH 750 0
DWIDTH 9 0
BBX 6 4 0 3
BITMAP
FC
00
00
FC
ENDCHAR
STARTCHAR char60
ENCODING 62
SWIDTH 583 0
DWIDTH 7 0
BBX 5 10 0 0
BITMAP
80
C0
60
30
18
18
30
60
C0
80
ENDCHAR
STARTCHAR C063
ENCODING 63
SWIDTH 833 0
DWIDTH 10 0
BBX 8 13 0 0
BITMAP
7C
C6
03
03
03
06
1C
30
30
00
00
30
30
ENDCHAR
STARTCHAR C101
ENCODING 65
SWIDTH 1000 0
DWIDTH 12 0
BBX 10 13 0 0
BITMAP
0C00
0C00
1E00
1E00
3300
3300
3300
6180
6180
7F80
C0C0
C0C0
C0C0
ENDCHAR
STARTCHAR C102
ENCODING 66
SWIDTH 833 0
DWIDTH 10 0
BBX 8 13 0 0
BITMAP
FC
C6
C3
C3
C3
C6
FC
C6
C3
C3
C3
C6
FC
ENDCHAR
STARTCHAR C103
ENCODING 67
SWIDTH 916 0
DWIDTH 11 0
BBX 9 13 0 0
BITMAP
1F00
3180
6000
C000
C000
C000
C000
C000
C000
C000
6000
3180
1F00
ENDCHAR
STARTCHAR C104
ENCODING 68
SWIDTH 916 0
DWIDTH 11 0
BBX 9 13 0 0
BITMAP
FC00
C600
C300
C180
C180
C180
C180
C180
C180
C180
C300
C600
FC00
ENDCHAR
STARTCHAR C105
ENCODING 69
SWIDTH 750 0
DWIDTH 9 0
BBX 7 13 0 0
BITMAP
FE
C0
C0
C0
C0
C0
FC
C0
C0
C0
C0
C0
FE
ENDCHAR
STARTCHAR C106
ENCODING 70
SWIDTH 750 0
DWIDTH 9 0
BBX 7 13 0 0
BITMAP
FE
C0
C0
C0
C0
C0
FC
C0
C0
C0
C0
C0
C0
ENDCHAR
STARTCHAR C107
ENCODING 71
SWIDTH 1000 0
DWIDTH 12 0
BBX 10 13 0 0
BITMAP
1F80
30C0
6000
C000
C000
C000
C3C0
C0C0
C0C0
C0C0
60C0
30C0
1F80
ENDCHAR
STARTCHAR C110
ENCODING 72
SWIDTH 833 0
DWIDTH 10 0
BBX 8 13 0 0
BITMAP
C3
C3
C3
C3
C3
C3
FF
C3
C3
C3
C3
C3
C3
ENDCHAR
STARTCHAR C111
ENCODING 73
SWIDTH 416 0
DWIDTH 5 0
BBX 2 13 1 0
BITMAP
C0
C0
C0
C0
C0
C0
C0
C0
C0
C0
C0
C0
C0
ENDCHAR
STARTCHAR C112
ENCODING 74
SWIDTH 416 0
DWIDTH 5 0
BBX 4 15 -1 -2
BITMAP
30
30
30
30
30
30
30
30
30
30
30
30
30
60
C0
ENDCHAR
STARTCHAR C113
ENCODING 75
SWIDTH 833 0
DWIDTH 10 0
BBX 9 13 0 0
BITMAP
C180
C300
C600
CC00
D800
F000
E000
F000
D800
CC00
C600
C300
C180
ENDCHAR
STARTCHAR C114
ENCODING 76
SWIDTH 750 0
DWIDTH 9 0
BBX 7 13 0 0
BITMAP
C0
C0
C0
C0
C0
C0
C0
C0
C0
C0
C0
C0
FE
ENDCHAR
STARTCHAR C115
ENCODING 77
SWIDTH 1083 0
DWIDTH 13 0
BBX 11 13 0 0
BITMAP
C060
C060
E0E0
E0E0
F1E0
F1E0
DB60
DB60
CE60
CE60
C460
C460
C060
ENDCHAR
STARTCHAR C116
ENCODING 78
SWIDTH 916 0
DWIDTH 11 0
BBX 9 13 0 0
BITMAP
E180
E180
F180
F180
D980
D980
DD80
CD80
CD80
C780
C780
C380
C380
ENDCHAR
STARTCHAR C117
ENCODING 79
SWIDTH 1083 0
DWIDTH 13 0
BBX 11 13 0 0
BITMAP
1F00
3180
60C0
C060
C060
C060
C060
C060
C060
C060
60C0
3180
1F00
ENDCHAR
STARTCHAR C120
ENCODING 80
SWIDTH 833 0
DWIDTH 10 0
BBX 8 13 0 0
BITMAP
FC
C6
C3
C3
C3
C3
C6
FC
C0
C0
C0
C0
C0
ENDCHAR
STARTCHAR C121
ENCODING 81
SWIDTH 1083 0
DWIDTH 13 0
BBX 11 15 0 -2
BITMAP
1F00
3180
60C0
C060
C060
C060
C060
C060
C060
C060
60C0
3180
1F80
00C0
0060
ENDCHAR
STARTCHAR C122
ENCODING 82
SWIDTH 833 0
DWIDTH 10 0
BBX 8 13 0 0
BITMAP
FC
C6
C3
C3
C3
C3
C6
FC
CC
C6
C6
C3
C3
ENDCHAR
STARTCHAR C123
ENCODING 83
SWIDTH 833 0
DWIDTH 10 0
BBX 8 13 0 0
BITMAP
3E
63
C0
C0
E0
78
1E
07
03
03
03
C6
7C
ENDCHAR
STARTCHAR C124
ENCODING 84
SWIDTH 833 0
DWIDTH 10 0
BBX 10 13 -1 0
BITMAP
FFC0
0C00
0C00
0C00
0C00
0C00
0C00
0C00
0C00
0C00
0C00
0C00
0C00
ENDCHAR
STARTCHAR C125
ENCODING 85
SWIDTH 916 0
DWIDTH 11 0
BBX 9 13 0 0
BITMAP
C180
C180
C180
C180
C180
C180
C180
C180
C180
C180
C180
6300
3E00
ENDCHAR
STARTCHAR C126
ENCODING 86
SWIDTH 916 0
DWIDTH 11 0
BBX 9 13 0 0
BITMAP
C180
C180
C180
6300
6300
6300
6300
3600
3600
3600
1C00
1C00
1C00
ENDCHAR
STARTCHAR C127
ENCODING 87
SWIDTH 1250 0
DWIDTH 15 0
BBX 13 13 0 0
BITMAP
C218
C218
C718
C718
C718
6DB0
6DB0
6DB0
6DB0
38E0
38E0
38E0
1040
ENDCHAR
STARTCHAR C130
ENCODING 88
SWIDTH 833 0
DWIDTH 10 0
BBX 8 13 0 0
BITMAP
C3
C3
66
66
3C
3C
18
3C
3C
66
66
C3
C3
ENDCHAR
STARTCHAR C131
ENCODING 89
SWIDTH 833 0
DWIDTH 10 0
BBX 8 13 0 0
BITMAP
C3
C3
C3
66
66
3C
3C
18
18
18
18
18
18
ENDCHAR
STARTCHAR C132
ENCODING 90
SWIDTH 750 0
DWIDTH 9 0
BBX 7 13 0 0
BITMAP
FE
06
0C
0C
18
18
30
30
60
60
C0
C0
FE
ENDCHAR
STARTCHAR C051
ENCODING 91
SWIDTH 500 0
DWIDTH 6 0
BBX 4 18 0 -2
BITMAP
F0
C0
C0
C0
C0
C0
C0
C0
C0
C0
C0
C0
C0
C0
C0
C0
C0
F0
ENDCHAR
STARTCHAR C057
ENCODING 92
SWIDTH 833 0
DWIDTH 10 0
BBX 9 16 0 -1
BITMAP
C000
C000
6000
6000
3000
3000
1800
1800
0C00
0C00
0600
0600
0300
0300
0180
0180
ENDCHAR
STARTCHAR C051
ENCODING 93
SWIDTH 500 0
DWIDTH 6 0
BBX 4 18 0 -2
BITMAP
F0
30
30
30
30
30
30
30
30
30
30
30
30
30
30
30
30
F0
ENDCHAR
STARTCHAR C117
ENCODING 94
SWIDTH 750 0
DWIDTH 9 0
BBX 8 4 0 9
BITMAP
18
3C
66
C3
ENDCHAR
STARTCHAR char95
ENCODING 95
SWIDTH 666 0
DWIDTH 8 0
BBX 8 1 0 0
BITMAP
FF
ENDCHAR
STARTCHAR C047
ENCODING 96
SWIDTH 416 0
DWIDTH 5 0
BBX 4 3 0 11
BITMAP
C0
60
30
ENDCHAR
STARTCHAR C141
ENCODING 97
SWIDTH 833 0
DWIDTH 10 0
BBX 8 10 0 0
BITMAP
7C
C6
06
06
7E
C6
C6
C6
CE
73
ENDCHAR
STARTCHAR C142
ENCODING 98
SWIDTH 833 0
DWIDTH 10 0
BBX 8 14 0 0
BITMAP
C0
C0
C0
C0
DC
E6
C3
C3
C3
C3
C3
C3
C6
7C
ENDCHAR
STARTCHAR C143
ENCODING 99
SWIDTH 750 0
DWIDTH 9 0
BBX 7 10 0 0
BITMAP
3C
66
C0
C0
C0
C0
C0
C0
66
3C
ENDCHAR
STARTCHAR C144
ENCODING 100
SWIDTH 833 0
DWIDTH 10 0
BBX 8 14 0 0
BITMAP
03
03
03
03
3B
67
C3
C3
C3
C3
C3
C3
67
3B
ENDCHAR
STARTCHAR C145
ENCODING 101
SWIDTH 833 0
DWIDTH 10 0
BBX 8 10 0 0
BITMAP
3C
66
C3
C3
FF
C0
C0
C3
66
3C
ENDCHAR
STARTCHAR C146
ENCODING 102
SWIDTH 583 0
DWIDTH 7 0
BBX 7 14 -1 0
BITMAP
1E
30
30
30
FC
30
30
30
30
30
30
30
30
30
ENDCHAR
STARTCHAR C147
ENCODING 103
SWIDTH 833 0
DWIDTH 10 0
BBX 9 15 0 -4
BITMAP
0180
3F00
6600
C300
C300
C300
6600
3C00
6000
6000
3E00
0300
0300
C300
7E00
ENDCHAR
STARTCHAR C150
ENCODING 104
SWIDTH 750 0
DWIDTH 9 0
BBX 7 14 0 0
BITMAP
C0
C0
C0
C0
DC
E6
C6
C6
C6
C6
C6
C6
C6
C6
ENDCHAR
STARTCHAR C151
ENCODING 105
SWIDTH 333 0
DWIDTH 4 0
BBX 2 14 0 0
BITMAP
C0
C0
00
00
C0
C0
C0
C0
C0
C0
C0
C0
C0
C0
ENDCHAR
STARTCHAR C152
ENCODING 106
SWIDTH 333 0
DWIDTH 4 0
BBX 4 17 -2 -3
BITMAP
30
30
00
00
30
30
30
30
30
30
30
30
30
30
30
30
E0
ENDCHAR
STARTCHAR C153
ENCODING 107
SWIDTH 833 0
DWIDTH 10 0
BBX 8 14 0 0
BITMAP
C0
C0
C0
C0
C3
C6
CC
D8
F0
F0
D8
CC
C6
C3
ENDCHAR
STARTCHAR C154
ENCODING 108
SWIDTH 416 0
DWIDTH 5 0
BBX 3 14 0 0
BITMAP
C0
C0
C0
C0
C0
C0
C0
C0
C0
C0
C0
C0
C0
60
ENDCHAR
STARTCHAR C155
ENCODING 109
SWIDTH 1166 0
DWIDTH 14 0
BBX 12 10 0 0
BITMAP
DCE0
E730
C630
C630
C630
C630
C630
C630
C630
C630
ENDCHAR
STARTCHAR C156
ENCODING 110
SWIDTH 750 0
DWIDTH 9 0
BBX 7 10 0 0
BITMAP
DC
E6
C6
C6
C6
C6
C6
C6
C6
C6
ENDCHAR
STARTCHAR C157
ENCODING 111
SWIDTH 833 0
DWIDTH 10 0
BBX 8 10 0 0
BITMAP
3C
66
C3
C3
C3
C3
C3
C3
66
3C
ENDCHAR
STARTCHAR C160
ENCODING 112
SWIDTH 833 0
DWIDTH 10 0
BBX 8 14 0 -4
BITMAP
DC
E6
C3
C3
C3
C3
C3
C3
E6
DC
C0
C0
C0
C0
ENDCHAR
STARTCHAR C161
ENCODING 113
SWIDTH 833 0
DWIDTH 10 0
BBX 8 14 0 -4
BITMAP
3E
63
C3
C3
C3
C3
C3
C3
67
3B
03
03
03
03
ENDCHAR
STARTCHAR C162
ENCODING 114
SWIDTH 500 0
DWIDTH 6 0
BBX 5 10 0 0
BITMAP
D8
E0
C0
C0
C0
C0
C0
C0
C0
C0
ENDCHAR
STARTCHAR C163
ENCODING 115
SWIDTH 750 0
DWIDTH 9 0
BBX 7 10 0 0
BITMAP
7C
C6
C0
E0
78
1C
06
06
C6
7C
ENDCHAR
STARTCHAR C164
ENCODING 116
SWIDTH 500 0
DWIDTH 6 0
BBX 6 12 -1 0
BITMAP
30
30
FC
30
30
30
30
30
30
30
30
1C
ENDCHAR
STARTCHAR C165
ENCODING 117
SWIDTH 750 0
DWIDTH 9 0
BBX 7 10 0 0
BITMAP
C6
C6
C6
C6
C6
C6
C6
C6
CE
76
ENDCHAR
STARTCHAR C166
ENCODING 118
SWIDTH 916 0
DWIDTH 11 0
BBX 9 10 0 0
BITMAP
C180
C180
C180
6300
6300
6300
3600
3600
1C00
1C00
ENDCHAR
STARTCHAR C167
ENCODING 119
SWIDTH 1250 0
DWIDTH 15 0
BBX 13 10 0 0
BITMAP
C718
C718
C718
6DB8
6DB0
6DB0
6DB0
38E0
38E0
38E0
ENDCHAR
STARTCHAR C170
ENCODING 120
SWIDTH 750 0
DWIDTH 9 0
BBX 7 10 0 0
BITMAP
C6
C6
6C
6C
38
38
6C
6C
C6
C6
ENDCHAR
STARTCHAR C171
ENCODING 121
SWIDTH 916 0
DWIDTH 11 0
BBX 9 14 0 -4
BITMAP
C180
C180
C180
6300
6300
6300
3600
3600
1C00
1C00
1800
1800
3000
E000
ENDCHAR
STARTCHAR C172
ENCODING 122
SWIDTH 666 0
DWIDTH 8 0
BBX 6 10 0 0
BITMAP
FC
0C
18
18
30
60
60
C0
C0
FC
ENDCHAR
STARTCHAR C050
ENCODING 123
SWIDTH 583 0
DWIDTH 7 0
BBX 6 18 0 -2
BITMAP
0C
18
18
30
30
30
30
30
E0
E0
30
30
30
30
30
18
18
0C
ENDCHAR
STARTCHAR C051
ENCODING 124
SWIDTH 250 0
DWIDTH 3 0
BBX 2 15 0 -1
BITMAP
C0
C0
C0
C0
C0
C0
C0
C0
C0
C0
C0
C0
C0
C0
C0
ENDCHAR
STARTCHAR C050
ENCODING 125
SWIDTH 583 0
DWIDTH 7 0
BBX 6 18 0 -2
BITMAP
C0
60
60
30
30
30
30
30
1C
1C
30
30
30
30
30
60
60
C0
ENDCHAR
STARTCHAR C117
ENCODING 126
SWIDTH 833 0
DWIDTH 10 0
BBX 9 4 0 4
BITMAP
7000
F880
8F80
0700
ENDCHAR
STARTCHAR C260
ENCODING 176
SWIDTH 666 0
DWIDTH 8 0
BBX 6 6 0 7
BITMAP
78
CC
CC
CC
CC
78
ENDCHAR
STARTCHAR C053
ENCODING 177
SWIDTH 666 0
DWIDTH 8 0
BBX 6 7 0 2
BITMAP
30
30
FC
30
30
00
FC
ENDCHAR
STARTCHAR C260
ENCODING 178
SWIDTH 583 0
DWIDTH 7 0
BBX 7 10 0 11
BITMAP
7C
C6
06
06
0C
18
30
60
C0
FE
ENDCHAR
STARTCHAR C265
ENCODING 181
SWIDTH 833 0
DWIDTH 10 0
BBX 7 14 0 -4
BITMAP
C6
C6
C6
C6
C6
C6
C6
C6
CE
F6
C0
C0
C0
C0
ENDCHAR
STARTCHAR U+00D7
ENCODING 215
SWIDTH 750 0
DWIDTH 9 0
BBX 7 6 0 3
BITMAP
C6
6C
38
38
6C
C6
ENDCHAR
STARTCHAR char8212
ENCODING 8211
SWIDTH 833 0
DWIDTH 10 0
BBX 8 1 0 5
BITMAP
FF
ENDCHAR
STARTCHAR char8212
ENCODING 8212
SWIDTH 1250 0
DWIDTH 15 0
BBX 13 1 0 5
BITMAP
FFF8
ENDCHAR
STARTCHAR C047
ENCODING 8216
SWIDTH 250 0
DWIDTH 3 0
BBX 3 4 0 10
BITMAP
60
C0
C0
C0
ENDCHAR
STARTCHAR C047
ENCODING 8217
SWIDTH 333 0
DWIDTH 4 0
BBX 3 4 0 10
BITMAP
60
60
60
C0
ENDCHAR
STARTCHAR C054
ENCODING 8220
SWIDTH 583 0
DWIDTH 7 0
BBX 6 4 0 10
BITMAP
6C
D8
D8
D8
ENDCHAR
STARTCHAR C054
ENCODING 8221
SWIDTH 500 0
DWIDTH 6 0
BBX 6 4 0 10
BITMAP
6C
6C
6C
D8
ENDCHAR
STARTCHAR C052
ENCODING 8226
SWIDTH 750 0
DWIDTH 9 0
BBX 5 5 0 3
BITMAP
70
F8
F8
F8
70
ENDCHAR
STARTCHAR C056
ENCODING 8230
SWIDTH 1083 0
DWIDTH 13 0
BBX 14 2 0 0
BITMAP
C30C
C30C
ENDCHAR
STARTCHAR char8592
ENCODING 8592
SWIDTH 1000 0
DWIDTH 12 0
BBX 10 9 0 1
BITMAP
0C00
1800
3000
6000
FFC0
6000
3000
1800
0C00
ENDCHAR
STARTCHAR char8592
ENCODING 8593
SWIDTH 916 0
DWIDTH 11 0
BBX 9 10 1 1
BITMAP
0800
1C00
3E00
6B00
C980
8880
0800
0800
0800
0800
ENDCHAR
STARTCHAR char8592
ENCODING 8594
SWIDTH 1000 0
DWIDTH 12 0
BBX 10 9 0 1
BITMAP
0C00
0600
0300
0180
FFC0
0180
0300
0600
0C00
ENDCHAR
STARTCHAR char8592
ENCODING 8595
SWIDTH 916 0
DWIDTH 11 0
BBX 9 10 1 1
BITMAP
0800
0800
0800
0800
8880
C980
6B00
3E00
1C00
0800
ENDCHAR
STARTCHAR char9343
ENCODING 9343
SWIDTH 1416 0
DWIDTH 17 0
BBX 17 19 0 -4
BITMAP
FFFF00
FFFF80
FFFF80
FFFF80
CF0F80
8E0780
8E6780
CFE780
CFC780
CF8F80
CF1F80
CE3F80
CE7F80
860780
860780
FFFF80
FFFF80
FFFF80
FFFF00
ENDCHAR
STARTCHAR char9377
ENCODING 9377
SWIDTH 1000 0
DWIDTH 12 0
BBX 12 19 0 -4
BITMAP
7FF0
FFF0
FFF0
FFF0
F810
F810
F9F0
F9F0
F9F0
F830
F830
F9F0
F9F0
F9F0
F9F0
FFF0
FFF0
FFF0
7FF0
ENDCHAR
STARTCHAR char9679
ENCODING 9675
SWIDTH 1000 0
DWIDTH 12 0
BBX 9 9 0 2
BITMAP
3E00
4100
8080
8080
8080
8080
8080
4100
3E00
ENDCHAR
STARTCHAR char9679
ENCODING 9679
SWIDTH 1000 0
DWIDTH 12 0
BBX 9 9 0 2
BITMAP
3E00
7F00
FF80
FF80
FF80
FF80
FF80
7F00
3E00
ENDCHAR
STARTCHAR C075
ENCODING 9776
SWIDTH 1500 0
DWIDTH 18 0
BBX 14 15 0 -1
BITMAP
FFFC
FFFC
FFFC
0000
0000
0000
FFFC
FFFC
FFFC
0000
0000
0000
FFFC
FFFC
FFFC
ENDCHAR
STARTCHAR char10003
ENCODING 10003
SWIDTH 1416 0
DWIDTH 17 0
BBX 18 14 -1 0
BITMAP
000180
0003C0
0007C0
000F80
001F00
603E00
F07C00
F8F800
7DF000
3FE000
1FC000
0F8000
070000
020000
ENDCHAR
STARTCHAR char10003
ENCODING 11205
SWIDTH 1750 0
DWIDTH 21 0
BBX 17 11 -2 1
BITMAP
008000
01C000
03E000
07F000
0FF800
1F7C00
3E3E00
7C1F00
F80F80
F00780
600300
ENDCHAR
STARTCHAR char10003
ENCODING 11206
SWIDTH 1750 0
DWIDTH 21 0
BBX 17 11 -2 1
BITMAP
600300
F00780
F80F80
7C1F00
3E3E00
1F7C00
0FF800
07F000
03E000
01C000
008000
ENDCHAR
STARTCHAR char10003
ENCODING 11207
SWIDTH 1166 0
DWIDTH 14 0
BBX 11 17 0 -2
BITMAP
00C0
01E0
03E0
07C0
0F80
1F00
3E00
7C00
F800
7C00
3E00
1F00
0F80
07C0
03E0
01E0
00C0
ENDCHAR
STARTCHAR char10003
ENCODING 11208
SWIDTH 1166 0
DWIDTH 14 0
BBX 11 17 0 -2
BITMAP
6000
F000
F800
7C00
3E00
1F00
0F80
07C0
03E0
07C0
0F80
1F00
3E00
7C00
F800
F000
6000
ENDCHAR
STARTCHAR C146
ENCODING 64256
SWIDTH 1083 0
DWIDTH 13 0
BBX 12 14 -1 0
BITMAP
1FF0
3180
3180
3180
FFF0
3180
3180
3180
3180
3180
3180
3180
3180
3180
ENDCHAR
STARTCHAR C146
ENCODING 64257
SWIDTH 833 0
DWIDTH 10 0
BBX 9 14 -1 0
BITMAP
1F80
3180
3000
3000
FF80
3180
3180
3180
3180
3180
3180
3180
3180
3180
ENDCHAR
STARTCHAR C146
ENCODING 64258
SWIDTH 916 0
DWIDTH 11 0
BBX 10 14 -1 0
BITMAP
1F80
3180
3180
3180
FF80
3180
3180
3180
3180
3180
3180
3180
3180
30C0
ENDCHAR
STARTCHAR C146
ENCODING 64259
SWIDTH 1333 0
DWIDTH 16 0
BBX 14 14 -1 0
BITMAP
1FFC
318C
3180
3180
FFFC
318C
318C
318C
318C
318C
318C
318C
318C
318C
ENDCHAR
ENDFONT
